<mxfile host="app.diagrams.net" agent="Mozilla/5.0 (Windows NT 10.0; Win64; x64) AppleWebKit/537.36 (KHTML, like Gecko) Chrome/131.0.0.0 Safari/537.36" version="25.0.3">
  <diagram name="Page-1" id="74e2e168-ea6b-b213-b513-2b3c1d86103e">
    <mxGraphModel dx="1728" dy="943" grid="1" gridSize="10" guides="1" tooltips="1" connect="1" arrows="1" fold="1" page="1" pageScale="1" pageWidth="1100" pageHeight="850" background="none" math="0" shadow="0">
      <root>
        <mxCell id="0" />
        <mxCell id="1" parent="0" />
        <mxCell id="77e6c97f196da883-1" value="Thread Pool" style="swimlane;html=1;childLayout=stackLayout;startSize=20;rounded=0;shadow=0;labelBackgroundColor=none;strokeWidth=1;fontFamily=Verdana;fontSize=23;align=center;" parent="1" vertex="1">
          <mxGeometry x="220" y="60" width="640" height="460" as="geometry">
            <mxRectangle x="220" y="60" width="50" height="40" as="alternateBounds" />
          </mxGeometry>
        </mxCell>
        <mxCell id="77e6c97f196da883-2" value="Thread 1" style="swimlane;html=1;startSize=20;fontSize=23;" parent="77e6c97f196da883-1" vertex="1">
          <mxGeometry y="20" width="160" height="440" as="geometry" />
        </mxCell>
        <mxCell id="77e6c97f196da883-8" value="Block 1&lt;div&gt;32x128&lt;/div&gt;" style="rounded=1;whiteSpace=wrap;html=1;shadow=0;labelBackgroundColor=none;strokeWidth=1;fontFamily=Verdana;fontSize=23;align=center;fillColor=#f8cecc;strokeColor=#b85450;" parent="77e6c97f196da883-2" vertex="1">
          <mxGeometry x="20" y="65" width="100" height="60" as="geometry" />
        </mxCell>
        <mxCell id="cryescvJxbKdsz8jqzaL-7" value="Block4&lt;div&gt;&lt;span style=&quot;background-color: initial;&quot;&gt;32x128&lt;/span&gt;&lt;/div&gt;" style="rounded=1;whiteSpace=wrap;html=1;shadow=0;labelBackgroundColor=none;strokeWidth=1;fontFamily=Verdana;fontSize=23;align=center;fillColor=#d5e8d4;strokeColor=#82b366;" vertex="1" parent="77e6c97f196da883-2">
          <mxGeometry x="20" y="160" width="100" height="60" as="geometry" />
        </mxCell>
        <mxCell id="cryescvJxbKdsz8jqzaL-10" value="Block3&lt;div&gt;&lt;span style=&quot;background-color: initial;&quot;&gt;32x128&lt;/span&gt;&lt;/div&gt;" style="rounded=1;whiteSpace=wrap;html=1;shadow=0;labelBackgroundColor=none;strokeWidth=1;fontFamily=Verdana;fontSize=23;align=center;fillColor=#dae8fc;strokeColor=#6c8ebf;" vertex="1" parent="77e6c97f196da883-2">
          <mxGeometry x="20" y="260" width="100" height="60" as="geometry" />
        </mxCell>
        <mxCell id="77e6c97f196da883-40" style="edgeStyle=orthogonalEdgeStyle;rounded=1;html=1;labelBackgroundColor=none;startArrow=none;startFill=0;startSize=5;endArrow=classicThin;endFill=1;endSize=5;jettySize=auto;orthogonalLoop=1;strokeWidth=1;fontFamily=Verdana;fontSize=8" parent="77e6c97f196da883-1" target="77e6c97f196da883-24" edge="1">
          <mxGeometry relative="1" as="geometry">
            <mxPoint x="770" y="690" as="sourcePoint" />
          </mxGeometry>
        </mxCell>
        <mxCell id="77e6c97f196da883-3" value="Thread 2" style="swimlane;html=1;startSize=20;fontSize=23;" parent="77e6c97f196da883-1" vertex="1">
          <mxGeometry x="160" y="20" width="160" height="440" as="geometry" />
        </mxCell>
        <mxCell id="77e6c97f196da883-11" value="Block 2&lt;div&gt;32x128&lt;/div&gt;" style="rounded=1;whiteSpace=wrap;html=1;shadow=0;labelBackgroundColor=none;strokeWidth=1;fontFamily=Verdana;fontSize=23;align=center;fillColor=#fff2cc;strokeColor=#d6b656;" parent="77e6c97f196da883-3" vertex="1">
          <mxGeometry x="30" y="65" width="100" height="60" as="geometry" />
        </mxCell>
        <mxCell id="cryescvJxbKdsz8jqzaL-4" value="Block 1&lt;div&gt;32x128&lt;/div&gt;" style="rounded=1;whiteSpace=wrap;html=1;shadow=0;labelBackgroundColor=none;strokeWidth=1;fontFamily=Verdana;fontSize=23;align=center;fillColor=#f8cecc;strokeColor=#b85450;" vertex="1" parent="77e6c97f196da883-3">
          <mxGeometry x="30" y="160" width="100" height="60" as="geometry" />
        </mxCell>
        <mxCell id="cryescvJxbKdsz8jqzaL-11" value="Block4&lt;div&gt;&lt;span style=&quot;background-color: initial;&quot;&gt;32x128&lt;/span&gt;&lt;/div&gt;" style="rounded=1;whiteSpace=wrap;html=1;shadow=0;labelBackgroundColor=none;strokeWidth=1;fontFamily=Verdana;fontSize=23;align=center;fillColor=#d5e8d4;strokeColor=#82b366;" vertex="1" parent="77e6c97f196da883-3">
          <mxGeometry x="30" y="260" width="100" height="60" as="geometry" />
        </mxCell>
        <mxCell id="77e6c97f196da883-4" value="Thread 3" style="swimlane;html=1;startSize=20;fontSize=23;" parent="77e6c97f196da883-1" vertex="1">
          <mxGeometry x="320" y="20" width="160" height="440" as="geometry" />
        </mxCell>
        <mxCell id="77e6c97f196da883-12" value="Block3&lt;div&gt;&lt;span style=&quot;background-color: initial;&quot;&gt;32x128&lt;/span&gt;&lt;/div&gt;" style="rounded=1;whiteSpace=wrap;html=1;shadow=0;labelBackgroundColor=none;strokeWidth=1;fontFamily=Verdana;fontSize=23;align=center;fillColor=#dae8fc;strokeColor=#6c8ebf;" parent="77e6c97f196da883-4" vertex="1">
          <mxGeometry x="30" y="65" width="100" height="60" as="geometry" />
        </mxCell>
        <mxCell id="cryescvJxbKdsz8jqzaL-5" value="Block 2&lt;div&gt;32x128&lt;/div&gt;" style="rounded=1;whiteSpace=wrap;html=1;shadow=0;labelBackgroundColor=none;strokeWidth=1;fontFamily=Verdana;fontSize=23;align=center;fillColor=#fff2cc;strokeColor=#d6b656;" vertex="1" parent="77e6c97f196da883-4">
          <mxGeometry x="30" y="160" width="100" height="60" as="geometry" />
        </mxCell>
        <mxCell id="cryescvJxbKdsz8jqzaL-8" value="Block 1&lt;div&gt;32x128&lt;/div&gt;" style="rounded=1;whiteSpace=wrap;html=1;shadow=0;labelBackgroundColor=none;strokeWidth=1;fontFamily=Verdana;fontSize=23;align=center;fillColor=#f8cecc;strokeColor=#b85450;" vertex="1" parent="77e6c97f196da883-4">
          <mxGeometry x="30" y="260" width="100" height="60" as="geometry" />
        </mxCell>
        <mxCell id="77e6c97f196da883-5" value="Thread 4" style="swimlane;html=1;startSize=20;fontSize=23;" parent="77e6c97f196da883-1" vertex="1">
          <mxGeometry x="480" y="20" width="160" height="440" as="geometry" />
        </mxCell>
        <mxCell id="77e6c97f196da883-15" value="Block4&lt;div&gt;&lt;span style=&quot;background-color: initial;&quot;&gt;32x128&lt;/span&gt;&lt;/div&gt;" style="rounded=1;whiteSpace=wrap;html=1;shadow=0;labelBackgroundColor=none;strokeWidth=1;fontFamily=Verdana;fontSize=23;align=center;fillColor=#d5e8d4;strokeColor=#82b366;" parent="77e6c97f196da883-5" vertex="1">
          <mxGeometry x="30" y="65" width="100" height="60" as="geometry" />
        </mxCell>
        <mxCell id="cryescvJxbKdsz8jqzaL-6" value="Block3&lt;div&gt;&lt;span style=&quot;background-color: initial;&quot;&gt;32x128&lt;/span&gt;&lt;/div&gt;" style="rounded=1;whiteSpace=wrap;html=1;shadow=0;labelBackgroundColor=none;strokeWidth=1;fontFamily=Verdana;fontSize=23;align=center;fillColor=#dae8fc;strokeColor=#6c8ebf;" vertex="1" parent="77e6c97f196da883-5">
          <mxGeometry x="30" y="160" width="100" height="60" as="geometry" />
        </mxCell>
        <mxCell id="cryescvJxbKdsz8jqzaL-9" value="Block 2&lt;div&gt;32x128&lt;/div&gt;" style="rounded=1;whiteSpace=wrap;html=1;shadow=0;labelBackgroundColor=none;strokeWidth=1;fontFamily=Verdana;fontSize=23;align=center;fillColor=#fff2cc;strokeColor=#d6b656;" vertex="1" parent="77e6c97f196da883-5">
          <mxGeometry x="30" y="260" width="100" height="60" as="geometry" />
        </mxCell>
      </root>
    </mxGraphModel>
  </diagram>
</mxfile>
